<?xml version="1.0" encoding="UTF-8"?>
<svg version="1.1" xmlns="http://www.w3.org/2000/svg" width="1774" height="887">
<path d="M0 0 C20.8944005 0 20.8944005 0 30.6875 1.75 C31.75782471 1.93409424 32.82814941 2.11818848 33.9309082 2.30786133 C67.82012535 8.30792786 98.71059672 23.69907803 124 47 C124.55429688 47.50901855 125.10859375 48.01803711 125.6796875 48.54248047 C139.84914852 61.71824982 150.20607893 76.83754873 159 94 C159.36609375 94.70237793 159.7321875 95.40475586 160.109375 96.12841797 C169.00148976 113.33675418 173.40760416 131.64805465 177.40917969 150.50317383 C177.87620663 152.47684514 178.4190759 154.43255853 178.98852539 156.37915039 C179.95094977 159.82441129 180.64883797 163.20419556 181.26171875 166.7265625 C188.24245088 205.59699702 202.0618602 244.18153429 235.61767578 268.15576172 C243.11277949 273.28577202 250.93780153 277.82358744 259 282 C260.68029297 282.90492188 260.68029297 282.90492188 262.39453125 283.828125 C274.74951984 290.36141685 287.79171643 294.93973941 300.90844727 299.69134521 C326.93622669 309.12581239 352.10624579 319.2864796 374.4140625 336.06640625 C376.09009181 337.31963058 377.79252981 338.53857676 379.5234375 339.71484375 C413.08847412 362.74670822 437.131581 398.66733925 452 436 C452.33515625 436.77988281 452.6703125 437.55976562 453.015625 438.36328125 C457.78836229 449.63224429 460.85699456 461.4502962 463.1875 473.4375 C463.3421875 474.22165283 463.496875 475.00580566 463.65625 475.8137207 C466.46870659 491.04225603 467.38006187 506.22656733 467.3125 521.6875 C467.30976578 522.99652786 467.30976578 522.99652786 467.30697632 524.33200073 C467.25878778 538.08362771 466.60936095 551.46614817 464 565 C463.82307617 565.94536621 463.64615234 566.89073242 463.46386719 567.86474609 C459.8882755 586.57947942 454.4674268 603.98442166 447 621.5 C446.50169678 622.66942139 446.00339355 623.83884277 445.48999023 625.04370117 C442.35306999 632.25455717 438.90350099 639.17503533 435 646 C434.31333252 647.207771 434.31333252 647.207771 433.61279297 648.43994141 C416.26947703 678.59711134 393.92027523 706.90468094 366 728 C364.70695884 729.01909176 363.41541955 730.04009066 362.125 731.0625 C353.42306909 737.90401809 344.51655965 744.12734533 335.01025391 749.79833984 C333.55967186 750.66544755 332.11469621 751.54195827 330.67333984 752.42431641 C323.88910187 756.55819116 316.9224901 760.23322886 309.85546875 763.85546875 C304.58612772 766.57991322 299.47331504 769.46901592 294.40673828 772.55371094 C290.72450723 774.76648602 286.95710121 776.81595651 283.1875 778.875 C277.80857129 781.83388443 272.51352252 784.86312415 267.3125 788.125 C191.29971857 834.78631137 89.19204516 800 0 800 C0 536 0 272 0 0 Z " fill="#870B26" transform="translate(0,87)"/>
<path d="M0 0 C1.59350795 1.48918664 3.17688374 2.98928835 4.75 4.5 C5.99716797 5.66982422 5.99716797 5.66982422 7.26953125 6.86328125 C19.42248694 18.56820171 28.6080532 33.00160632 37.3125 47.375 C40.24068172 52.02970396 43.65705955 55.68868158 47.6484375 59.453125 C49.46788381 61.22522513 50.92310124 62.97460779 52.4375 65 C63.46997094 78.093482 85.1286359 86.54019153 101.75 88.5 C116.51615012 89.68036218 130.94930686 88.28034354 145.55874634 86.2182312 C176.67498292 81.84103679 207.12635534 85.90253709 234.75 101.5 C235.38099609 101.84401855 236.01199219 102.18803711 236.66210938 102.54248047 C246.74925831 108.05648008 255.34966867 114.67309555 263.75 122.5 C264.54083984 123.23307373 264.54083984 123.23307373 265.34765625 123.98095703 C278.05759685 135.89055363 287.60326567 148.94431573 295.640625 164.37939453 C296.64363196 166.29667412 297.67510654 168.1944974 298.71875 170.08984375 C307.46326982 186.52417157 311.09087316 204.25352613 314.21289062 222.46435547 C314.55116763 224.37623561 314.92063219 226.28311042 315.33398438 228.18017578 C317.52339211 238.91787635 316.75 247.89869838 316.75 259.5 C165.28 259.5 13.81 259.5 -142.25 259.5 C-141.59260137 252.26861512 -140.77099846 245.78551094 -139.1875 238.8125 C-134.27246263 215.17361566 -138.82291966 192.45684054 -151.78125 172.09375 C-153.18455503 170.12912295 -154.65842318 168.31509124 -156.25 166.5 C-156.91644531 165.73816406 -157.58289062 164.97632813 -158.26953125 164.19140625 C-161.37640657 160.70365304 -164.51220298 157.25838671 -167.76953125 153.91015625 C-173.8179013 147.58305947 -178.29719556 141.0068926 -182.31201172 133.29394531 C-183.23729502 131.52429886 -184.19854497 129.77360935 -185.16015625 128.0234375 C-189.55450412 119.757212 -192.29130427 111.64386096 -194.25 102.5 C-194.47558594 101.47777344 -194.70117188 100.45554687 -194.93359375 99.40234375 C-200.30964785 70.66826149 -193.8533882 41.91323073 -178.25 17.5 C-160.24540147 -8.34686998 -135.69293012 -24.55987789 -104.85546875 -30.73828125 C-101.43470597 -31.3023667 -101.43470597 -31.3023667 -99.25 -32.5 C-63.49569975 -37.72384257 -26.60158062 -23.56258941 0 0 Z " fill="#850B25" transform="translate(1314.25,627.5)"/>
<path d="M0 0 C163.35 0 326.7 0 495 0 C495 196.94444444 495 196.94444444 475 220 C474.06853376 221.14619163 473.14155078 222.29603909 472.21875 223.44921875 C467.29108503 229.55470733 467.29108503 229.55470733 465 232 C464.34 232 463.68 232 463 232 C463 232.66 463 233.32 463 234 C460.01476158 236.77956254 456.77892079 239.25199551 453.56884766 241.76660156 C452.11215972 242.91182214 450.67062702 244.07624837 449.23046875 245.2421875 C420.24377557 268.02613375 382.17033396 277.70171549 345.66796875 273.46875 C341.07264732 272.82946483 336.534504 271.97747264 332 271 C331.3385498 270.86078125 330.67709961 270.7215625 329.99560547 270.578125 C309.16574869 266.04144835 291.17885075 255.87440388 276 241 C275.39510742 240.41412109 274.79021484 239.82824219 274.16699219 239.22460938 C265.88572825 231.18773687 258.14071982 223.06923539 251 214 C249.16416091 211.75528195 247.30527797 209.53068507 245.4375 207.3125 C244.97585449 206.76335937 244.51420898 206.21421875 244.03857422 205.6484375 C240.6856923 201.70359028 237.14581109 198.02824405 233.36328125 194.48828125 C232 193 232 193 232 191 C231.41347656 190.73445312 230.82695313 190.46890625 230.22265625 190.1953125 C227.93804849 188.96668337 226.33377641 187.63612064 224.4375 185.875 C199.88151727 164.17125483 170.69719058 155.43811854 139.515625 147.9140625 C107.02798858 140.02805947 77.95375179 128.73044149 52.58544922 106.35888672 C50.89773652 104.87395332 50.89773652 104.87395332 48.53515625 103.22265625 C47.77525391 102.61744141 47.77525391 102.61744141 47 102 C47 101.34 47 100.68 47 100 C46.34 100 45.68 100 45 100 C45 99.34 45 98.68 45 98 C44.43410156 97.77570313 43.86820313 97.55140625 43.28515625 97.3203125 C28.70558569 88.89656062 18.37585753 65.80227164 11.92529297 51.10498047 C11.12808287 49.29138008 10.30297999 47.49008709 9.47265625 45.69140625 C3.13444822 31.49304965 0 15.49592509 0 0 Z " fill="#850B26" transform="translate(1279,0)"/>
<path d="M0 0 C5.69487184 5.00578443 10.59819411 10.31945732 15.28125 16.28125 C17.01288557 18.56324968 17.01288557 18.56324968 19.05859375 20.53125 C19.25170103 23.07725923 19.31911913 25.51402243 19.29910278 28.06082153 C19.30166606 29.23944789 19.30166606 29.23944789 19.30428112 30.44188488 C19.30758962 33.08911471 19.29655008 35.73609409 19.28564453 38.38330078 C19.28508071 40.27519729 19.28539641 42.16709423 19.28652954 44.05899048 C19.28710519 49.20750622 19.27531659 54.35592945 19.26138163 59.50442362 C19.24890958 64.88029421 19.24770656 70.25616674 19.24533081 75.63204956 C19.23910564 85.81763569 19.22268084 96.00317906 19.20263183 106.18874633 C19.18030502 117.78227837 19.16928751 129.37581242 19.15924096 140.96936059 C19.13831549 164.82334746 19.10311943 188.67729634 19.05859375 212.53125 C18.39859375 212.53125 17.73859375 212.53125 17.05859375 212.53125 C16.83816406 213.2325 16.61773438 213.93375 16.390625 214.65625 C14.74791716 218.20180123 12.41330461 220.7400652 9.74609375 223.53125 C9.27236328 224.03914063 8.79863281 224.54703125 8.31054688 225.0703125 C2.29244378 231.49181785 -3.97396944 237.15420638 -10.94140625 242.53125 C-11.86953125 243.2840625 -12.79765625 244.036875 -13.75390625 244.8125 C-29.31057548 256.79113531 -48.64225186 266.11795685 -67.90673828 270.10791016 C-69.89837286 270.52229633 -71.86746105 270.99889371 -73.84375 271.48046875 C-94.63112895 276.10436356 -120.31950158 275.65673154 -140.94140625 270.53125 C-141.66086426 270.35916016 -142.38032227 270.18707031 -143.12158203 270.00976562 C-180.33699866 260.72017181 -214.62134898 236.92704339 -234.87158203 204.24169922 C-235.83530309 202.70088915 -236.85216739 201.19362707 -237.875 199.69140625 C-258.87287551 168.59210288 -267.18556431 128.456259 -260.94140625 91.46875 C-254.94797858 64.17473667 -243.57929636 36.6336545 -224.94140625 15.53125 C-224.43013184 14.94907715 -223.91885742 14.3669043 -223.39208984 13.76708984 C-209.79338205 -1.5917686 -195.09286487 -13.85669914 -176.94140625 -23.46875 C-175.91926025 -24.01571533 -175.91926025 -24.01571533 -174.87646484 -24.57373047 C-116.6731798 -55.2223733 -48.72748751 -40.89743971 0 0 Z " fill="#810B25" transform="translate(1754.94140625,398.46875)"/>
<path d="M0 0 C0.98131679 0.01716365 1.96263357 0.03432731 2.97368723 0.05201107 C4.54795476 0.03223284 4.54795476 0.03223284 6.15402567 0.01205504 C9.67699683 -0.02224562 13.19725421 0.00075133 16.72028452 0.02358395 C19.24329295 0.01110882 21.76628658 -0.00475635 24.28925425 -0.02376407 C30.43443917 -0.06032815 36.57861722 -0.05922084 42.72384965 -0.03948797 C47.71850437 -0.02415452 52.71294147 -0.02406597 57.70760638 -0.03485531 C58.41846443 -0.03636989 59.12932248 -0.03788448 59.86172168 -0.03944496 C61.30582869 -0.04257507 62.74993563 -0.04573449 64.19404251 -0.04892289 C77.73673483 -0.07690994 91.27900201 -0.05507163 104.8216461 -0.01673584 C116.43998152 0.01491376 128.05757108 0.00169319 139.67585093 -0.04379886 C153.16849552 -0.09662052 166.66068212 -0.11995631 180.15342677 -0.0975498 C181.59252742 -0.09525306 183.03162814 -0.09300097 184.47072893 -0.09079403 C185.17878606 -0.08970053 185.88684319 -0.08860704 186.61635659 -0.08748041 C191.60409058 -0.08186383 196.5914984 -0.09749269 201.57916933 -0.12148327 C208.29460344 -0.15323193 215.00831295 -0.13748458 221.72372538 -0.08970684 C224.19001895 -0.07939339 226.6564312 -0.08445651 229.12265307 -0.10590595 C232.48731119 -0.13269968 235.8470903 -0.10419642 239.2114802 -0.06151432 C240.19056626 -0.08227293 241.16965233 -0.10303155 242.17840767 -0.12441921 C246.20434823 -0.0226546 248.65882919 0.05620177 251.55594939 3.01479787 C253.11436731 5.31066798 254.41712708 7.59380104 255.65607554 10.07460934 C256.04394328 10.78455624 256.43181103 11.49450315 256.83143234 12.22596359 C257.8480649 14.09000813 258.79090708 15.97734473 259.71857554 17.88710934 C260.22771494 18.92992062 260.22771494 18.92992062 260.74713999 19.99379879 C261.72617383 22.01638999 262.69180511 24.04495039 263.65607554 26.07460934 C264.13302866 27.05171871 264.60998179 28.02882809 265.10138804 29.03554684 C279.58660286 60.83013788 278.64288065 99.96120166 267.12873179 132.42617184 C260.68277795 148.39572327 251.96675741 163.07315543 240.65607554 176.07460934 C239.59259897 177.32177731 239.59259897 177.32177731 238.50763804 178.59414059 C229.98421587 188.36376708 220.59583308 197.07316451 209.65607554 204.07460934 C208.71683237 204.69335934 208.71683237 204.69335934 207.7586146 205.32460934 C181.83106526 222.34371865 150.80193707 231.56246897 119.65607554 230.07460934 C118.98479624 230.04415524 118.31351694 230.01370114 117.62189585 229.98232418 C74.89070553 227.69697377 36.36893168 207.23710384 7.84357554 175.94960934 C4.65607554 172.36120728 4.65607554 172.36120728 4.65607554 170.07460934 C3.99607554 170.07460934 3.33607554 170.07460934 2.65607554 170.07460934 C1.40680796 168.47329098 1.40680796 168.47329098 0.01154429 166.23476559 C-0.50085806 165.4181445 -1.0132604 164.6015234 -1.54119009 163.76015621 C-2.3407311 162.46174801 -2.3407311 162.46174801 -3.15642446 161.13710934 C-3.67785024 160.30630856 -4.19927603 159.47550778 -4.73650259 158.61953121 C-13.34550499 144.80858479 -19.66717418 131.12739371 -24.09392446 115.44960934 C-24.38766958 114.41320309 -24.6814147 113.37679684 -24.98406118 112.30898434 C-30.65524291 91.57915871 -32.5165443 67.90778362 -26.34392446 47.07460934 C-26.06983755 46.10394528 -25.79575063 45.13328121 -25.51335806 44.13320309 C-24.54208789 40.71077633 -23.54313126 37.29779479 -22.53142446 33.88710934 C-22.21238149 32.8053442 -21.89333853 31.72357907 -21.56462759 30.60903317 C-19.21782845 23.01954493 -16.22382945 16.01008988 -12.34392446 9.07460934 C-12.04939868 8.41371746 -11.7548729 7.75282559 -11.4514221 7.07190669 C-8.60215907 1.41044328 -6.26883111 0.14936 0 0 Z " fill="#850B25" transform="translate(284.34392446279526,-1.0746093392372131)"/>
<path d="M0 0 C0.62455078 0.29471191 1.24910156 0.58942383 1.89257812 0.89306641 C17.32048738 8.2692107 31.5929863 18.1614288 43 31 C43.70898438 31.77988281 44.41796875 32.55976562 45.1484375 33.36328125 C65.94512308 57.40716861 78.08777522 90.57320399 77.41796875 122.46875 C76.01395296 141.81493603 70.66621308 162.15672742 61 179 C60.67135043 179.8808728 60.34270086 180.76174561 60.00409222 181.66931152 C58.37785384 185.2177278 56.93531748 187.39769366 54 190 C47.61266105 192.16801323 40.3598666 191.43897306 33.71606445 191.328125 C31.62301007 191.3332097 29.52996264 191.343066 27.43695068 191.35733032 C21.7607526 191.38182989 16.08695326 191.33775218 10.41107202 191.27999115 C4.47258637 191.22979033 -1.46583784 191.23803734 -7.40449524 191.23876953 C-17.37399649 191.23133399 -27.34257465 191.18166415 -37.31176758 191.10449219 C-48.84375916 191.01551015 -60.37482459 190.98218242 -71.90713853 190.9810791 C-84.18018991 190.97950694 -96.45289324 190.9398272 -108.72582269 190.88761902 C-112.26532462 190.87498713 -115.80478409 190.86922833 -119.34430504 190.86486816 C-124.90057396 190.85596526 -130.45611379 190.82139176 -136.01211548 190.76676559 C-138.05350089 190.75053946 -140.09497361 190.74280198 -142.13642311 190.74406815 C-144.91831253 190.7442821 -147.69819916 190.71384267 -150.4797821 190.67529297 C-151.69830078 190.6858843 -151.69830078 190.6858843 -152.94143599 190.69668961 C-156.8583422 190.6087552 -158.59227472 190.40357181 -161.42777729 187.59695435 C-161.94661078 186.73995941 -162.46544428 185.88296448 -163 185 C-163.82951172 183.89785156 -163.82951172 183.89785156 -164.67578125 182.7734375 C-181.24038482 158.49977022 -185.62902242 123.92984422 -180.40795898 95.48339844 C-177.55246804 81.29324331 -173.07130747 68.63423557 -166 56 C-165.64341309 55.34676758 -165.28682617 54.69353516 -164.91943359 54.02050781 C-151.98252973 30.61526667 -131.13572291 12.18080317 -107 1 C-105.96190186 0.50910889 -105.96190186 0.50910889 -104.90283203 0.00830078 C-72.63794331 -15.04059302 -32.24935992 -15.44950863 0 0 Z " fill="#870C26" transform="translate(763,697)"/>
<path d="M0 0 C13.73401397 11.25569566 24.15940244 26.22947715 26.59765625 44.12890625 C27.37741859 55.63548618 27.51566523 67.1584811 23.59765625 78.12890625 C23.34242188 78.9590625 23.0871875 79.78921875 22.82421875 80.64453125 C20.24397792 88.17220633 15.56391737 94.0015909 10.59765625 100.12890625 C10.00726562 100.88558594 9.416875 101.64226562 8.80859375 102.421875 C-1.66123737 115.24865862 -19.57992361 124.1007112 -35.93383789 125.83666992 C-53.82738557 127.31005376 -71.03231557 122.42235785 -85.46484375 111.62890625 C-86.80196731 110.4905443 -88.11551011 109.32382321 -89.40234375 108.12890625 C-90.09585937 107.49082031 -90.789375 106.85273438 -91.50390625 106.1953125 C-105.28808865 92.95320469 -112.59609657 75.86009129 -113.4296875 56.6875 C-113.30423996 40.36139901 -108.91158483 24.79442588 -98.40234375 12.12890625 C-97.67273437 11.21496094 -96.943125 10.30101563 -96.19140625 9.359375 C-90.14239784 2.20431812 -83.59564964 -2.41401657 -75.40234375 -6.87109375 C-74.55800781 -7.36480469 -73.71367188 -7.85851562 -72.84375 -8.3671875 C-49.40702909 -21.33627608 -20.43031761 -15.49176601 0 0 Z " fill="#8B0C28" transform="translate(1145.40234375,88.87109375)"/>
</svg>
