<?xml version="1.0" encoding="UTF-8"?>
<svg version="1.1" xmlns="http://www.w3.org/2000/svg" width="1536" height="1024">
<path d="M0 0 C3.53918425 -0.46748228 6.03660616 1.21821611 9 3 C9.92506348 3.4235376 10.85012695 3.8470752 11.80322266 4.28344727 C12.5822998 4.70682373 13.36137695 5.1302002 14.1640625 5.56640625 C15.05085693 6.0466626 15.93765137 6.52691895 16.85131836 7.02172852 C17.7666333 7.53018311 18.68194824 8.0386377 19.625 8.5625 C20.58994385 9.09480225 21.5548877 9.62710449 22.54907227 10.17553711 C30.6680177 14.70935315 38.43464135 19.59824283 46 25 C46.95277832 25.67893311 46.95277832 25.67893311 47.92480469 26.37158203 C59.2251278 34.46520781 70.00268054 42.94198472 80.1875 52.40625 C82.46547825 54.50705217 84.77018126 56.54950978 87.125 58.5625 C94.67833021 65.12651669 101.53777287 72.37245323 108 80 C109.28390625 81.485 109.28390625 81.485 110.59375 83 C116.42125341 89.76788045 121.85757485 96.690015 127 104 C127.82177734 105.10794922 127.82177734 105.10794922 128.66015625 106.23828125 C142.49075714 125.16952928 153.73396892 147.11032509 162 169 C162.86713407 171.06581939 163.7418089 173.12849424 164.625 175.1875 C166.20698526 178.9617608 167.62612746 182.73966307 168.8984375 186.62890625 C170.24376746 190.71363998 171.60586385 194.79103224 173 198.859375 C173.66666667 200.82291667 174.33333333 202.78645833 175 204.75 C175.33 205.70648438 175.66 206.66296875 176 207.6484375 C177.88897783 213.2415828 179.5102889 218.84991575 180.90234375 224.5859375 C183.13638441 233.77993523 185.79117891 242.82987021 188.5625 251.875 C188.82156128 252.72151123 189.08062256 253.56802246 189.34753418 254.44018555 C197.19824544 279.92714288 207.64176832 303.48561305 222 326 C222.60199219 326.97324219 223.20398438 327.94648438 223.82421875 328.94921875 C231.77266077 341.4301057 241.8684307 352.02802516 252.25 362.5 C252.98202637 363.24137207 253.71405273 363.98274414 254.46826172 364.74658203 C261.58781655 371.82453011 269.40159756 377.73797329 277.6875 383.375 C278.37392578 383.84341309 279.06035156 384.31182617 279.76757812 384.79443359 C297.01221009 396.51204181 314.83328927 406.60367026 333.5 415.875 C334.27903687 416.2636322 335.05807373 416.6522644 335.86071777 417.05267334 C347.44758992 422.83073672 359.11884216 428.3595353 370.921875 433.68359375 C377.41773128 436.62225315 383.77620612 439.81061795 390.12451172 443.05273438 C392.07562266 444.03819525 394.0376631 444.99824177 396.00390625 445.953125 C415.40901355 455.40821217 433.57807206 466.95371613 450 481 C451.15575952 481.97063641 452.3120394 482.94065345 453.46875 483.91015625 C464.05806536 492.82852052 473.36247131 502.14493701 482 513 C482.96873047 514.16789063 482.96873047 514.16789063 483.95703125 515.359375 C526.0483053 566.45183801 543.68104099 634.56246876 538 700 C535.22951113 727.36260446 529.80837201 756.74286171 518.234375 781.87890625 C516.62927128 784.95942659 516.62927128 784.95942659 518 788 C517.34 788.66 516.68 789.32 516 790 C513.66555453 792.86750172 512.07145235 795.72616207 510.5390625 799.0859375 C510.07395264 800.08866699 509.60884277 801.09139648 509.12963867 802.12451172 C508.63310791 803.19717285 508.13657715 804.26983398 507.625 805.375 C497.98841317 825.83284133 485.90734929 844.75744425 473.3125 863.5 C453.56728751 893.04226307 436.91454874 921.76250282 429.5625 956.9375 C429.37397461 957.82115234 429.18544922 958.70480469 428.99121094 959.61523438 C428.57508221 961.72840112 428.27527965 963.86391528 428 966 C428.66 966.33 429.32 966.66 430 967 C427.89134274 967.57948146 425.75054508 968.03986077 423.6072678 968.47413796 C422.89179761 968.62015472 422.17632743 968.76617148 421.43917633 968.91661299 C418.99468412 969.41155205 416.54800362 969.89433122 414.10067654 970.37504864 C413.24451537 970.54451366 412.3883542 970.71397868 411.50624876 970.88857901 C298.68234896 993.15615472 170.52627954 1015.78705297 6.85992746 972.17958941 C-18.99260353 954.46945834 -27.88610832 918.89634214 -33.37973094 889.85273385 C-41.22642301 845.9850913 -42.55653481 801.83283821 -42.3185543 757.37211486 C-42.30860456 755.36546102 -42.3012091 753.35881416 -42.29469568 751.35214641 C-42.06671403 682.32843162 -37.91401929 613.68802722 -32.20729704 544.92296027 C-28.61850749 501.67142576 -25.99039903 458.48296603 -24.3808917 415.11179713 C-24.29958079 412.92119956 -24.217789 410.73062038 -24.13589787 408.54004443 C-23.64785302 395.4668739 -23.17245814 382.39325857 -22.71154835 369.31910314 C-21.6177241 338.30483281 -20.38300363 307.29708876 -19.04786682 276.2922821 C-19.01863042 275.61216152 -18.98939402 274.93204094 -18.95927166 274.23131064 C-16.44341222 215.75430673 -12.93510615 157.36899437 -8.62135154 98.99503748 C-8.01778102 90.81927628 -7.43489445 82.64222211 -6.85989761 74.46440697 C-6.10242331 63.72240749 -5.2907114 52.98559709 -4.43662036 42.25086596 C-4.12706284 38.3436252 -3.83762818 34.43571044 -3.5658242 30.52566615 C-3.25475399 26.06927956 -2.90130789 21.61851052 -2.51103025 17.16837947 C-2.37686145 15.5544984 -2.25847093 13.93922211 -2.15647529 12.32298875 C-1.59326803 3.5564627 -1.59326803 3.5564627 0 0 Z " fill="#9E192D" transform="translate(0,57)"/>
</svg>
